<svg xmlns="http://www.w3.org/2000/svg" viewBox="0 0 64 64"><g stroke="#355646" stroke-width="2" stroke-linecap="round" stroke-linejoin="round"><path d="M8 15q12-6 24 2 12-8 24-2v36q-13-5-24 2-11-7-24-2z" fill="#f3ecd9"/><path d="M32 17v36" stroke="#9c793d"/><path d="M12 20q8-2 15 1M12 27q8-2 15 1M12 35q8-2 15 1M12 42q8-2 15 1" stroke="#b6b69a"/><path d="M45 17v15l4-3 4 3V15" fill="#a18a4e" stroke="#9c793d"/><path d="M40 36c-4 0-5 5-2 6 3 1 4-3 2-4m10-2c-4 0-5 5-2 6 3 1 4-3 2-4" stroke="#355646" fill="none"/></g></svg>